<?xml version="1.0" standalone="no"?>
<!DOCTYPE svg PUBLIC "-//W3C//DTD SVG 20010904//EN"
 "http://www.w3.org/TR/2001/REC-SVG-20010904/DTD/svg10.dtd">
<svg version="1.0" xmlns="http://www.w3.org/2000/svg"
 width="100.000000pt" height="100.000000pt" viewBox="0 0 100.000000 100.000000"
 preserveAspectRatio="xMidYMid meet">
<metadata>
Created by potrace 1.14, written by Peter Selinger 2001-2017
</metadata>
<g transform="translate(0.000000,100.000000) scale(0.100000,-0.100000)"
fill="#000000" stroke="none">
<path d="M348 961 c-81 -26 -136 -61 -194 -123 -94 -99 -134 -199 -134 -333 1
-140 41 -238 139 -336 98 -98 196 -138 336 -139 135 0 234 40 336 137 63 60
99 120 124 207 24 81 17 229 -14 308 -45 117 -151 223 -268 269 -82 32 -245
37 -325 10z m281 -92 c169 -59 282 -249 250 -423 -23 -127 -110 -239 -227
-294 -50 -24 -69 -27 -157 -27 -93 0 -105 2 -166 32 -80 39 -150 111 -187 191
-24 50 -27 69 -27 157 0 88 3 107 27 157 34 73 108 153 173 186 103 53 202 60
314 21z"/>
<path d="M494 738 c-41 -39 -74 -80 -74 -90 0 -11 -13 -23 -32 -32 -18 -7 -70
-52 -115 -99 -82 -84 -83 -85 -83 -137 0 -92 48 -140 140 -140 51 0 54 1 126
72 41 39 74 80 74 90 0 11 13 23 33 32 17 7 69 52 115 99 l82 85 0 57 c0 53
-3 60 -39 96 -36 36 -43 39 -96 39 l-57 0 -74 -72z m170 -24 c33 -32 20 -64
-59 -142 -77 -78 -76 -77 -142 -51 -61 25 -87 -33 -33 -73 l30 -22 -42 -44
c-55 -56 -86 -72 -116 -61 -25 9 -42 44 -35 70 6 23 147 159 165 159 8 0 23
-7 34 -15 40 -31 93 -8 79 35 -4 11 -18 28 -31 37 l-25 16 53 54 c56 57 92 68
122 37z"/>
</g>
</svg>
